<svg width="242" height="9" viewBox="0 0 242 9" fill="none" xmlns="http://www.w3.org/2000/svg">
<path d="M0.707031 0.707092L4.70703 4.70709C6.91617 6.91623 10.4979 6.91623 12.707 4.70709C14.9162 2.49795 18.4979 2.49795 20.707 4.70709C22.9162 6.91623 26.4979 6.91623 28.707 4.70709C30.9162 2.49795 34.4979 2.49795 36.707 4.70709C38.9162 6.91623 42.4979 6.91623 44.707 4.70709C46.9162 2.49795 50.4979 2.49795 52.707 4.70709C54.9162 6.91623 58.4979 6.91623 60.707 4.70709C62.9162 2.49795 66.4979 2.49795 68.707 4.70709C70.9162 6.91623 74.4979 6.91623 76.707 4.70709C78.9162 2.49795 82.4979 2.49795 84.707 4.70709C86.9162 6.91623 90.4979 6.91623 92.707 4.70709C94.9162 2.49795 98.4979 2.49795 100.707 4.70709C102.916 6.91623 106.498 6.91623 108.707 4.70709C110.916 2.49795 114.498 2.49795 116.707 4.70709C118.916 6.91623 122.498 6.91623 124.707 4.70709C126.916 2.49795 130.498 2.49795 132.707 4.70709C134.916 6.91623 138.498 6.91623 140.707 4.70709C142.916 2.49795 146.498 2.49795 148.707 4.70709C150.916 6.91623 154.498 6.91623 156.707 4.70709C158.916 2.49795 162.498 2.49795 164.707 4.70709C166.916 6.91623 170.498 6.91623 172.707 4.70709C174.916 2.49795 178.498 2.49795 180.707 4.70709C182.916 6.91623 186.498 6.91623 188.707 4.70709C190.916 2.49795 194.498 2.49795 196.707 4.70709C198.916 6.91623 202.498 6.91623 204.707 4.70709C206.916 2.49795 210.498 2.49795 212.707 4.70709C214.916 6.91623 218.498 6.91623 220.707 4.70709C222.916 2.49795 226.498 2.49795 228.707 4.70709C230.916 6.91623 234.498 6.91623 236.707 4.70709L240.707 0.707092" stroke="white" stroke-opacity="0.16" stroke-width="2"/>
<path d="M0.707031 0.707092L4.70703 4.70709C6.91617 6.91623 10.4979 6.91623 12.707 4.70709C14.9162 2.49795 18.4979 2.49795 20.707 4.70709C22.9162 6.91623 26.4979 6.91623 28.707 4.70709C30.9162 2.49795 34.4979 2.49795 36.707 4.70709C38.9162 6.91623 42.4979 6.91623 44.707 4.70709C46.9162 2.49795 50.4979 2.49795 52.707 4.70709C54.9162 6.91623 58.4979 6.91623 60.707 4.70709L60.9065 4.50759C63.0055 2.40863 66.4086 2.40863 68.5075 4.50759C70.756 6.75605 74.4303 6.50458 76.9579 4.57529C78.1763 3.64529 79.501 2.87938 80.707 2.70709" stroke="#9196FF" stroke-width="2"/>
</svg>
